<svg t="1651481030630" class="icon" viewBox="0 0 1024 1024" version="1.1" xmlns="http://www.w3.org/2000/svg" p-id="2054" width="200" height="200"><path d="M510.897388 64.826448c-162.089655 0-293.950845 132.135436-293.950845 294.562782 0 64.114227 20.405749 125.258819 58.648748 176.329984 52.78111 77.66894 88.364537 152.916738 108.783589 230.011604 1.62194 6.139837 7.176446 10.42135 13.529131 10.42135l224.020146 0c6.241145 0 11.733229-4.143367 13.455453-10.147104 23.001877-80.113619 47.700395-142.431943 105.46296-223.284389 41.87369-52.768831 64.002686-116.170836 64.002686-183.331445C804.848233 196.962907 672.987043 64.826448 510.897388 64.826448zM718.517005 525.860682c-58.049091 81.21265-84.021625 144.003741-107.085924 222.259036L408.578024 748.119719c-21.617343-76.55763-57.636698-151.342894-110.231567-228.687446-34.945907-46.690392-53.41863-102.044094-53.41863-160.04202 0-146.975423 119.317503-266.529309 265.968537-266.529309 146.651035 0 265.968537 119.55491 265.968537 266.529309C776.865925 420.159292 756.833683 477.520721 718.517005 525.860682zM618.568642 799.128463 404.621922 799.128463c-2.521426 0-4.481058 1.972934-4.481058 4.493338l0 19.908422c0 2.520403 1.959631 4.481058 4.481058 4.481058l213.94672 0c2.521426 0 4.468778-1.960655 4.468778-4.481058l0-19.908422C623.038444 801.101397 621.090069 799.128463 618.568642 799.128463zM600.397794 848.752674 422.519548 848.752674c-3.083222 0-5.878894 2.508123-5.878894 5.877871l0 17.10047c0 3.369747 2.795673 5.877871 5.878894 5.877871L600.397794 877.608885c3.083222 0 5.865591-2.508123 5.865591-5.877871l0-17.10047C606.263385 851.260797 603.479993 848.752674 600.397794 848.752674zM511.171634 959.171506c8.673543 0 70.76674-47.64002 85.306898-57.449433L425.589466 901.722072C441.815009 912.655076 499.988943 959.460078 511.171634 959.171506zM538.030351 440.403359c8.387018-1.984191 16.21224-4.779863 23.214724-8.974395 12.855796-7.563256 21.529339-17.110703 27.956725-29.167297 7.27673-14.290471 10.346649-30.528294 9.797134-45.954635-1.122567-27.744901-14.552437-58.297754-39.439244-71.465658-17.897625-8.686846-39.426965-11.769045-62.367443-11.769045-13.704117 0-27.682479 0.836041-41.947368 1.673106-4.194532 0.561795-14.826684 1.409093-20.980847 1.409093l-3.918239 0c-0.275269 0-0.836041 0.275269-1.111311 0.275269-0.562818 0-1.410116 0-1.685385 0.561795-0.560772 0-0.835018 0-1.396813 0.286526-5.317099 2.234901-8.112772 6.714935-8.112772 12.044314l0 264.857227c0 7.28901 5.591345 13.743002 13.704117 13.743002 7.837502 0 13.704117-6.453992 13.704117-13.743002L445.447746 443.747523l1.959631 0c3.083222 0 6.154163 0.561795 9.235338 0.561795 10.621918 0.287549 22.652929 0.849344 34.397415 0.849344 5.865591 0 11.744485 0 17.061584-0.561795 23.215748 37.555337 47.816029 76.234265 70.480214 113.227808 3.90596 5.877871 12.018731 8.4126 18.458397 4.204765l-0.560772 0c4.754281-1.958608 6.714935-5.054109 7.275707-8.685823 0.561795-3.084245-0.561795-7.013741-1.672082-10.084683L538.030351 440.403359zM490.203066 417.974533c-10.908444 0-22.37766-0.849344-32.724309-1.12359-3.083222 0-5.877871-0.561795-8.674567-0.561795l-3.357468 0L445.446723 302.775838c5.042853-0.561795 11.471262-1.397836 12.032034-0.848321 13.978363-0.836041 26.846438-1.672082 39.714514-1.672082 19.584034 0 37.19411 1.959631 50.062186 8.686846 6.427386 3.369747 12.032034 9.522887 15.663748 16.536628 5.02955 9.261944 7.825222 20.456914 8.385994 31.664164 0.287549 11.220552-1.396813 23.264866-6.714935 32.238238-3.345188 7.28901-9.224082 13.729699-16.486486 17.934464C533.549294 415.453107 512.295224 417.974533 490.203066 417.974533z" p-id="2055"></path></svg>