<svg t="1651562425236" class="icon" viewBox="0 0 1024 1024" version="1.1" xmlns="http://www.w3.org/2000/svg" p-id="7333" width="200" height="200"><path d="M367.7952 388.9408a13.6448 13.6448 0 1 1 19.2768-19.2768l132.7872 132.7872a13.6704 13.6704 0 0 1 0 19.2768l-132.7872 132.608a13.6448 13.6448 0 1 1-19.2768-19.2768L490.8288 512l-123.0336-123.0592z m136.5248 0a13.6448 13.6448 0 0 1 19.2768-19.2768l132.7872 132.7872a13.6704 13.6704 0 0 1 0 19.2768l-132.7872 132.7872a13.6448 13.6448 0 0 1-19.2768-19.3024L627.3792 512 504.32 388.9408z" p-id="7334"></path></svg>