<svg t="1651388499646" class="icon" viewBox="0 0 1024 1024" version="1.1" xmlns="http://www.w3.org/2000/svg" p-id="6059" width="200" height="200"><path d="M185.07776 834.82624h87.77728a20.48 20.48 0 0 0 20.48-20.48v-149.79072a20.48 20.48 0 0 0-20.48-20.48H185.07776a20.48 20.48 0 0 0-20.48 20.48v149.79072a20.48 20.48 0 0 0 20.48 20.48z m20.48-149.8112h46.81728v108.83072h-46.81728v-108.83072zM448.38912 834.82624a20.48 20.48 0 0 0 20.48-20.48v-422.7072a20.48 20.48 0 0 0-20.48-20.48h-87.77728a20.48 20.48 0 0 0-20.48 20.48v422.7072a20.48 20.48 0 0 0 20.48 20.48h87.77728z m-67.29728-422.7072h46.81728v381.7472h-46.81728v-381.7472zM623.9232 834.82624a20.48 20.48 0 0 0 20.48-20.48V531.6608a20.48 20.48 0 0 0-20.48-20.48H536.1664a20.48 20.48 0 0 0-20.48 20.48v282.68544a20.48 20.48 0 0 0 20.48 20.48h87.7568zM556.6464 552.1408h46.81728v241.72544H556.6464V552.1408zM691.22048 199.94624v614.4a20.48 20.48 0 0 0 20.48 20.48h87.77728a20.48 20.48 0 0 0 20.48-20.48v-614.4a20.48 20.48 0 0 0-20.48-20.48h-87.77728a20.48 20.48 0 0 0-20.48 20.48z m40.96 20.48h46.81728v573.44h-46.81728v-573.44z" fill="#231F20" p-id="6060"></path></svg>